# xmcd
# 
# Track frame offsets:
#     183
#     18583
#     32643
#     49545
#     65665
#     83670
#     97515
#     108425
#     120415
#     136353
#     149158
#     165878
#     179793
#     196760
#     212670
#     228003
# 
# Disc length: 3289
# 
# Revision: 5
# Processed by: cddbd v1.5.2PL0 Copyright (c) Steve Scherf et al.
# Submitted via: fre:ac v1.0.31
# 
DISCID=ce0cd710
DTITLE=Various Artist - Bääärenstark!!! Vol. 1 - CD2
DYEAR=1994
DGENRE=Schlager
TTITLE0=Roger Witthaker - Come into my dreams
TTITLE1=Al Martino - Lady Rosalito
TTITLE2=Andrea Jürgens - Eleni hiess das Mädchen
TTITLE3=Wolfgang Petry - Ich will noch mehr
TTITLE4=Angelika Milster - Ich liebe Dich
TTITLE5=Angela Wiedl - So a Tag
TTITLE6=Zillertaler Schürzenjäger - Jede Nacht a lange Nacht
TTITLE7=John Reeves - Rosanna
TTITLE8=Die Wildecker Herzbuben - Ich liebe Dich
TTITLE9=Die Dinos - Wir sind die Dinos
TTITLE10=Ines Adler - Ich schleich mich
TTITLE11=Bernd Clüver - Lieben heisst leben
TTITLE12=Andreas Martin - Nur mit Dir
TTITLE13=Nanno - Es war Nacht in New Mexico
TTITLE14=Leonard - Nur Du, nur du
TTITLE15=Udo Jürgens - Café Grössenwahn
EXTD=
EXTT0=Roger Whitaker
EXTT1=Al Martino
EXTT2=Andrea J rgens
EXTT3=Wolfgang Petry
EXTT4=Angelika Milster
EXTT5=Angela Wiedl
EXTT6=Zillertaler Sch rzenj ger
EXTT7=John Reeves
EXTT8=Die Wildecker Herzbuben
EXTT9=Die Dinos
EXTT10=Ines Adler
EXTT11=Bern Cl ver
EXTT12=Andreas Martin
EXTT13=Nanno
EXTT14=Leonhard
EXTT15=Udo J rgens
PLAYORDER=
